<svg width="156" height="88" xmlns="http://www.w3.org/2000/svg"><g  fill-rule="evenodd"><path d="M83.582 7.154h-4.355V19h-2.93V7.154H72V4.781h11.582v2.373zm7.178 10.772c-.697.846-1.66 1.27-2.89 1.27-1.134 0-1.998-.326-2.594-.977-.595-.651-.9-1.605-.913-2.862V8.434h2.823v6.826c0 1.1.5 1.65 1.503 1.65.957 0 1.615-.332 1.973-.996v-7.48h2.832V19h-2.656l-.078-1.074zm10.8-6.846a7.667 7.667 0 0 0-1.015-.078c-1.068 0-1.768.361-2.1 1.084V19h-2.822V8.434h2.666l.078 1.26c.567-.97 1.351-1.456 2.354-1.456.312 0 .605.043.879.127l-.04 2.715zm10.88 2.734c0 1.693-.362 3.013-1.085 3.96-.722.948-1.731 1.421-3.027 1.421-1.146 0-2.06-.44-2.744-1.318L105.457 19h-2.539V4h2.822v5.38c.651-.76 1.507-1.142 2.569-1.142 1.289 0 2.3.474 3.032 1.421.732.947 1.098 2.28 1.098 4v.155zm-2.823-.205c0-1.067-.17-1.847-.508-2.338-.338-.492-.843-.738-1.513-.738-.899 0-1.517.368-1.856 1.104v4.17c.345.742.97 1.113 1.875 1.113.912 0 1.51-.45 1.797-1.348.137-.43.205-1.084.205-1.963zm4.121.01c0-1.048.202-1.982.606-2.803a4.432 4.432 0 0 1 1.743-1.904c.758-.45 1.639-.674 2.642-.674 1.425 0 2.589.436 3.49 1.309.902.872 1.405 2.057 1.51 3.555l.019.722c0 1.621-.452 2.922-1.357 3.902s-2.12 1.47-3.643 1.47c-1.523 0-2.74-.489-3.647-1.466-.909-.976-1.363-2.304-1.363-3.984v-.127zm2.823.205c0 1.003.188 1.77.566 2.3.378.53.918.796 1.621.796.684 0 1.217-.262 1.602-.786.384-.524.576-1.363.576-2.515 0-.983-.192-1.745-.576-2.285-.385-.54-.925-.81-1.621-.81-.69 0-1.224.268-1.602.805-.378.537-.566 1.369-.566 2.495zM80.252 39.27c0-.554-.195-.979-.586-1.275-.39-.296-1.094-.609-2.11-.937-1.015-.33-1.819-.653-2.411-.972-1.615-.872-2.422-2.048-2.422-3.525 0-.769.216-1.454.65-2.056.432-.602 1.054-1.073 1.864-1.411.81-.339 1.72-.508 2.73-.508 1.015 0 1.92.184 2.715.552.794.368 1.41.887 1.85 1.557.44.67.66 1.433.66 2.285h-2.93c0-.65-.205-1.157-.616-1.518-.41-.361-.986-.542-1.728-.542-.716 0-1.273.151-1.67.454a1.432 1.432 0 0 0-.596 1.196c0 .463.233.85.699 1.162.465.313 1.15.606 2.055.88 1.667.5 2.881 1.122 3.643 1.865.762.742 1.142 1.666 1.142 2.773 0 1.23-.465 2.196-1.396 2.896-.931.7-2.184 1.05-3.76 1.05-1.094 0-2.09-.2-2.988-.601-.899-.4-1.584-.95-2.056-1.646s-.708-1.504-.708-2.422h2.94c0 1.57.937 2.354 2.812 2.354.697 0 1.24-.142 1.631-.425.39-.283.586-.679.586-1.186zm4.297-1.65c0-1.049.202-1.983.605-2.804a4.432 4.432 0 0 1 1.743-1.904c.759-.45 1.64-.674 2.642-.674 1.426 0 2.59.436 3.491 1.309.902.872 1.405 2.057 1.51 3.555l.019.722c0 1.621-.453 2.922-1.358 3.902s-2.119 1.47-3.642 1.47c-1.524 0-2.74-.489-3.648-1.466-.908-.976-1.362-2.304-1.362-3.984v-.127zm2.822.204c0 1.003.189 1.77.567 2.3.377.53.917.796 1.62.796.684 0 1.218-.262 1.602-.786.384-.524.576-1.363.576-2.515 0-.983-.192-1.745-.576-2.285-.384-.54-.924-.81-1.62-.81-.691 0-1.225.268-1.603.805-.377.537-.566 1.369-.566 2.495zM99.275 43h-2.832V28h2.832v15zm8.653-1.074c-.697.846-1.66 1.27-2.89 1.27-1.134 0-1.998-.326-2.594-.977-.595-.651-.9-1.605-.913-2.862v-6.923h2.823v6.826c0 1.1.5 1.65 1.503 1.65.957 0 1.615-.332 1.973-.996v-7.48h2.832V43h-2.656l-.078-1.074zm8.242-12.09v2.598h1.807v2.07h-1.807v5.273c0 .391.075.67.225.84.15.17.436.254.859.254a4.5 4.5 0 0 0 .83-.068v2.138a5.81 5.81 0 0 1-1.709.254c-1.98 0-2.988-.999-3.027-2.998v-5.693h-1.543v-2.07h1.543v-2.598h2.822zM122.527 43h-2.832V32.434h2.832V43zm-2.998-13.3c0-.424.142-.772.425-1.046.283-.273.669-.41 1.157-.41.482 0 .866.137 1.153.41.286.274.43.622.43 1.045 0 .43-.145.781-.435 1.055-.29.273-.672.41-1.148.41-.475 0-.857-.137-1.147-.41-.29-.274-.435-.625-.435-1.055zm4.883 7.92c0-1.049.202-1.983.606-2.804a4.432 4.432 0 0 1 1.743-1.904c.758-.45 1.639-.674 2.641-.674 1.426 0 2.59.436 3.492 1.309.901.872 1.404 2.057 1.508 3.555l.02.722c0 1.621-.453 2.922-1.358 3.902-.904.98-2.119 1.47-3.642 1.47-1.524 0-2.74-.489-3.648-1.466-.908-.976-1.362-2.304-1.362-3.984v-.127zm2.822.204c0 1.003.19 1.77.567 2.3.377.53.918.796 1.62.796.684 0 1.218-.262 1.602-.786.385-.524.577-1.363.577-2.515 0-.983-.192-1.745-.577-2.285-.384-.54-.924-.81-1.62-.81-.69 0-1.225.268-1.602.805-.378.537-.567 1.369-.567 2.495zm11.524-5.39l.088 1.22c.755-.944 1.767-1.416 3.037-1.416 1.12 0 1.953.33 2.5.987.547.657.827 1.64.84 2.949V43H142.4v-6.758c0-.599-.13-1.033-.39-1.304-.26-.27-.694-.405-1.3-.405-.793 0-1.389.339-1.786 1.016V43h-2.822V32.434h2.656zm14.326 7.646c0-.345-.17-.617-.513-.815-.342-.199-.89-.376-1.645-.533-2.513-.527-3.77-1.595-3.77-3.203 0-.937.39-1.72 1.167-2.348.778-.629 1.795-.943 3.052-.943 1.341 0 2.414.316 3.218.948.804.631 1.206 1.451 1.206 2.46h-2.822c0-.403-.13-.737-.391-1-.26-.264-.667-.396-1.22-.396-.476 0-.844.107-1.104.322-.26.215-.39.489-.39.82 0 .313.147.565.443.757.297.192.796.358 1.5.498.703.14 1.295.298 1.777.474 1.49.547 2.236 1.494 2.236 2.842 0 .963-.413 1.743-1.24 2.339-.827.595-1.895.893-3.203.893-.886 0-1.672-.158-2.359-.473-.686-.316-1.225-.749-1.616-1.3a3.018 3.018 0 0 1-.586-1.781h2.676c.026.5.212.885.557 1.152.345.267.807.4 1.386.4.54 0 .95-.102 1.226-.307a.957.957 0 0 0 .415-.806zM81.258 60.184h-6.65v5.8h7.646V67h-8.848V52.781h8.8v1.026h-7.599v5.361h6.65v1.016zm9.883 5.478c-.704 1.022-1.827 1.533-3.37 1.533-1.126 0-1.982-.327-2.568-.981-.586-.654-.885-1.623-.898-2.905v-6.875h1.162v6.728c0 2.012.814 3.018 2.441 3.018 1.693 0 2.764-.7 3.213-2.1v-7.646h1.172V67H91.16l-.02-1.338zm9.072-8.232a4.365 4.365 0 0 0-.791-.069c-.73 0-1.346.204-1.85.61-.505.408-.865.998-1.08 1.773V67H95.33V56.434h1.143l.02 1.68c.618-1.25 1.61-1.876 2.978-1.876.325 0 .582.043.771.127l-.03 1.065zm1.006 4.13c0-1.015.197-1.93.59-2.744.394-.813.951-1.447 1.67-1.899.72-.452 1.535-.679 2.447-.679 1.406 0 2.545.493 3.418 1.48.872.986 1.308 2.293 1.308 3.92v.245c0 1.022-.197 1.942-.59 2.759-.394.817-.95 1.447-1.666 1.89-.716.442-1.533.663-2.45.663-1.4 0-2.538-.493-3.414-1.48-.875-.986-1.313-2.292-1.313-3.92v-.234zm1.172.323c0 1.263.327 2.3.981 3.11.654.81 1.512 1.216 2.573 1.216 1.055 0 1.91-.405 2.564-1.216.654-.81.981-1.88.981-3.208v-.224c0-.808-.15-1.547-.449-2.217-.3-.67-.72-1.19-1.26-1.558-.54-.368-1.159-.552-1.855-.552-1.042 0-1.891.409-2.549 1.226-.658.817-.986 1.886-.986 3.208v.215zm19.17-.059c0 1.647-.365 2.954-1.094 3.921-.73.967-1.706 1.45-2.93 1.45-1.445 0-2.552-.507-3.32-1.523v5.39h-1.162V56.434h1.084l.058 1.494c.762-1.127 1.865-1.69 3.31-1.69 1.264 0 2.255.479 2.974 1.436.72.957 1.08 2.285 1.08 3.984v.166zm-1.172-.205c0-1.348-.277-2.412-.83-3.193-.554-.781-1.325-1.172-2.315-1.172-.716 0-1.331.172-1.846.517-.514.346-.908.847-1.181 1.504v5.069c.28.605.68 1.067 1.201 1.386.52.32 1.136.479 1.846.479.983 0 1.75-.392 2.3-1.177.55-.784.825-1.922.825-3.413zm7.851 5.576c-.898 0-1.71-.221-2.436-.664a4.526 4.526 0 0 1-1.695-1.85c-.403-.791-.605-1.678-.605-2.661v-.42c0-1.016.197-1.93.59-2.745.395-.813.943-1.453 1.646-1.918a4.06 4.06 0 0 1 2.285-.699c1.283 0 2.3.438 3.052 1.314.752.875 1.128 2.072 1.128 3.589v.654h-7.539v.225c0 1.197.343 2.195 1.03 2.993.687.797 1.551 1.196 2.593 1.196.625 0 1.177-.114 1.655-.342.479-.228.913-.592 1.304-1.094l.732.557c-.859 1.244-2.106 1.865-3.74 1.865zm-.215-9.96c-.879 0-1.62.322-2.221.966-.603.645-.969 1.51-1.099 2.598h6.338v-.127c-.033-1.016-.322-1.843-.87-2.48-.546-.639-1.262-.958-2.148-.958z" /><path d="M.034 84.071L3.071 2.217h-.479l-.507-.539V0h13.807v1.68l-.5.537h-.486l1 74.046C7.127 80.718 1.836 83.32.035 84.07zm26.011-12.98l3.424-69.21h-.39l-.413-.457V0h11.246v1.425l-.407.456h-.396l.805 62.078c-5.104 2.633-9.728 5.01-13.869 7.132zm23.003-11.85l.993-57.588h-.369l-.39-.401V0h10.635v1.252l-.385.401h-.375l.726 51.977c-3.79 1.965-7.401 3.836-10.835 5.612z"  fill-rule="nonzero"/><path d="M57.41 41.131l-.01-.106-.25.129.26-.023zm.953 10.832l-.117.01.035.067.091.028-.009-.105zm-1.972.41l-7.483.651a22.476 22.476 0 0 1 3.317 9.957c1.071 12.179-7.711 22.901-19.629 23.938C20.68 87.956 10.16 78.915 9.088 66.737c-1.034-11.764 7.125-22.17 18.422-23.8l-.024-.031 27.992-2.436 1.092-1.273 3.21-.28 1.304 14.817-3.21.28-1.442-1.177-.04-.464z" stroke="#FFF" stroke-width="2"  fill-rule="nonzero"/><circle fill="#FFF" fill-rule="nonzero" cx="31" cy="64" r="12"/><circle  fill-rule="nonzero" cx="31" cy="64" r="9"/><circle fill="#FFF" fill-rule="nonzero" cx="31" cy="64" r="3"/></g></svg>
