<svg width="23" height="24" xmlns="http://www.w3.org/2000/svg"><path d="M20.02 13.143c.046-.373.08-.746.08-1.143s-.034-.77-.08-1.143l2.46-1.925a.589.589 0 0 0 .14-.747l-2.332-4.037a.583.583 0 0 0-.514-.291c-.07 0-.14.011-.198.035L16.67 5.058a8.524 8.524 0 0 0-1.972-1.143L14.256.823a.569.569 0 0 0-.572-.49H9.018a.569.569 0 0 0-.572.49l-.443 3.092A8.963 8.963 0 0 0 6.03 5.058L3.126 3.892a.66.66 0 0 0-.21-.035.578.578 0 0 0-.502.291L.081 8.185a.575.575 0 0 0 .14.747l2.462 1.925A9.252 9.252 0 0 0 2.6 12c0 .385.035.77.082 1.143L.22 15.068a.589.589 0 0 0-.14.747l2.333 4.037a.583.583 0 0 0 .514.291c.07 0 .14-.011.198-.035l2.905-1.166c.607.466 1.26.851 1.972 1.143l.443 3.092c.035.28.28.49.572.49h4.666c.292 0 .537-.21.572-.49l.443-3.092a8.963 8.963 0 0 0 1.972-1.143l2.905 1.166a.66.66 0 0 0 .21.035.578.578 0 0 0 .502-.291l2.333-4.037a.589.589 0 0 0-.14-.747l-2.462-1.925zm-2.31-1.995c.046.362.058.607.058.852s-.024.502-.059.852l-.163 1.318 1.038.817 1.26.98-.816 1.411-1.482-.595-1.213-.49-1.05.794c-.502.373-.98.653-1.459.851l-1.236.502-.187 1.318-.233 1.575h-1.634l-.221-1.575-.187-1.318-1.237-.502a6.62 6.62 0 0 1-1.435-.828l-1.061-.817-1.237.502-1.482.595-.816-1.412 1.26-.98 1.038-.816-.163-1.319A9.385 9.385 0 0 1 4.934 12c0-.233.024-.502.059-.852l.163-1.318-1.038-.817-1.26-.98.816-1.411 1.482.595 1.213.49 1.05-.794c.502-.373.98-.653 1.459-.851l1.236-.502.187-1.318.233-1.575h1.622l.222 1.575.186 1.318 1.237.502c.502.21.968.478 1.435.828l1.062.817 1.236-.502 1.482-.595.817 1.412-1.249.991-1.038.817.163 1.318zm-6.36-3.815A4.665 4.665 0 0 0 6.685 12a4.665 4.665 0 0 0 4.667 4.667A4.665 4.665 0 0 0 16.018 12a4.665 4.665 0 0 0-4.667-4.667zm0 7A2.34 2.34 0 0 1 9.019 12a2.34 2.34 0 0 1 2.333-2.333A2.34 2.34 0 0 1 13.684 12a2.34 2.34 0 0 1-2.333 2.333z" fill-rule="nonzero"/></svg>
