<svg width="26" height="26" xmlns="http://www.w3.org/2000/svg"><path d="M12.833 26h-1.166v-7.665C10.418 19.467 8.773 20.167 7 20.167c-3.792 0-7-3.209-7-7V12h7.665c-1.132-1.248-1.832-2.893-1.832-4.667 0-3.791 3.209-7 7-7H14v7.665c1.248-1.131 2.893-1.831 4.667-1.831 3.791 0 7 3.208 7 7v1.166h-7.665c1.131 1.249 1.831 2.894 1.831 4.667 0 3.792-3.208 7-7 7zM14 14.485v9.03c1.983-.537 3.5-2.38 3.5-4.515s-1.517-3.978-3.5-4.515zm-11.515-.152c.537 1.984 2.38 3.5 4.515 3.5s3.978-1.516 4.515-3.5h-9.03zM14.152 12h9.03c-.537-1.983-2.392-3.5-4.515-3.5-2.124 0-3.979 1.517-4.515 3.5zm-2.485-9.182c-1.984.537-3.5 2.392-3.5 4.515 0 2.124 1.516 3.979 3.5 4.515v-9.03z" fill-rule="nonzero"/></svg>
